# xmcd
#
# Track frame offsets: 
#        150
#        11954
#        22361
#        33106
#        44744
#        54586
#        65837
#        75100
#        87289
#        96795
#        107296
#        118862
#        129489
#        138510
#        149220
#        160636
#        172861
#        184826
#        196733
#        207140
#        218321
#        229842
#        240331
#        250420
#        259639
#        269737
#        280600
#        291276
#        302162
#        312686
#        324161
#        334942
#        345958
#
# Disc length: 4758 seconds
#
# Revision: 0
# Processed by: cddbd v1.5.2PL0 Copyright (c) Steve Scherf et al.
# Submitted via: ExactAudioCopyFreeDBPlugin 1.0
#
DISCID=e1129421
DTITLE=Johnny Horton - Take Me Like I Am
DYEAR=2009
DGENRE=Country
TTITLE0=Take Me Like I Am
TTITLE1=Tennessee Jive
TTITLE2=Candy Jones (Acetate Version)
TTITLE3=Smokey Joe's Barbecue
TTITLE4=Two Red Lips And Warm Red Wine
TTITLE5=The Devil Made A Masterpiece
TTITLE6=S.S. Lureline
TTITLE7=Shadows On The Old Bayou
TTITLE8=Broken Hearted Gypsy
TTITLE9=Bawlin' Baby (& Billy Barton)
TTITLE10=Shotgun Boogie
TTITLE11=No True Love
TTITLE12=Ha Ha And Moonface
TTITLE13=She Knows Why
TTITLE14=You, You, You
TTITLE15=The Train With The Rhumba Beat
TTITLE16=You Don't Move Me Baby Anymore
TTITLE17=Hey, Sweet Thing
TTITLE18=Move Down The Line
TTITLE19=On The Banks Of The Beautiful Nile
TTITLE20=Mister Moonlight
TTITLE21=Out In New Mexico
TTITLE22=It's A Long Rocky Road (Overdub)
TTITLE23=Talk Gobbler Talk (Old Gobbler, The Hound Dog)
TTITLE24=In My Home In Shelby County (Overdub)
TTITLE25=First Train Headin' South
TTITLE26=Ridin' The Sunshine Special
TTITLE27=I'll Do It Everytime
TTITLE28=Seven Come Eleven
TTITLE29=You're My Baby
TTITLE30=Goodbye Lonesome, Hello Baby Doll
TTITLE31=Rhythm In My Baby's Walk
TTITLE32=Big Wheels Rollin'
EXTD=
EXTT0=
EXTT1=
EXTT2=
EXTT3=
EXTT4=
EXTT5=
EXTT6=
EXTT7=
EXTT8=
EXTT9=
EXTT10=
EXTT11=
EXTT12=
EXTT13=
EXTT14=
EXTT15=
EXTT16=
EXTT17=
EXTT18=
EXTT19=
EXTT20=
EXTT21=
EXTT22=
EXTT23=
EXTT24=
EXTT25=
EXTT26=
EXTT27=
EXTT28=
EXTT29=
EXTT30=
EXTT31=
EXTT32=
PLAYORDER=
